<?xml version="1.0" encoding="utf-8"?>
<!-- Generator: Adobe Illustrator 23.1.0, SVG Export Plug-In . SVG Version: 6.00 Build 0)  -->
<svg version="1.1" xmlns="http://www.w3.org/2000/svg" xmlns:xlink="http://www.w3.org/1999/xlink" x="0px" y="0px"
	 viewBox="0 0 216.26 179.22" style="enable-background:new 0 0 216.26 179.22;" xml:space="preserve">
<style type="text/css">
	.st0{fill:#B9DBF4;}
	.st1{fill:#F2F0F0;stroke:#DBDBDB;stroke-width:1.0567;stroke-miterlimit:10;}
	.st2{fill:#9AA3A8;}
	.st3{fill:#A2CEEA;}
	.st4{fill:none;stroke:#FFFFFF;stroke-width:2.5529;stroke-miterlimit:10;}
	.st5{fill:#FFFFFF;}
	.st6{fill:none;stroke:#9AA3A8;stroke-width:0.9573;stroke-miterlimit:10;stroke-dasharray:3.8293;}
	.st7{fill:none;stroke:#9AA3A8;stroke-width:0.6382;stroke-miterlimit:10;}
	.st8{fill:#F2F0F0;}
	.st9{fill:#E54539;}
	.st10{fill:#F4D038;}
	.st11{fill:#6AB751;}
	.st12{fill:#75B7DB;}
	.st13{fill:#F5AD89;}
	.st14{fill:#132333;}
	.st15{fill:#1D3149;}
	.st16{fill:#1D3048;}
	.st17{fill:#F47851;}
	.st18{fill:none;stroke:#3F3E3E;stroke-width:0.5283;stroke-linecap:round;stroke-miterlimit:10;}
	.st19{fill:#3F3E3E;}
	.st20{fill:#F49076;}
	.st21{fill:none;stroke:#1E3249;stroke-width:0.5283;stroke-miterlimit:10;}
	.st22{fill:none;stroke:#FFFFFF;stroke-width:0.5283;stroke-linecap:round;stroke-miterlimit:10;}
	.st23{fill:#B08662;}
	.st24{fill:#C09467;}
	.st25{fill:#F2F0F0;stroke:#DBDBDB;stroke-miterlimit:10;}
	.st26{fill:#C2976C;}
	.st27{fill:#E1B882;}
	.st28{fill:#CC5232;}
	.st29{fill:#69C984;}
	.st30{fill:none;stroke:#56B26B;stroke-linecap:round;stroke-miterlimit:10;}
	.st31{fill:#56B26B;}
	.st32{fill:none;stroke:#479155;stroke-miterlimit:10;}
	.st33{fill:none;stroke:#479155;stroke-linecap:round;stroke-miterlimit:10;}
	.st34{fill:#3D3F3F;}
</style>
<g id="BACKGROUND">
</g>
<g id="OBJECTS">
	<g>
		<path class="st1" d="M158.63,153.99L57.3,154.3c-8.61,0.02-15.67-6.99-15.7-15.59l-0.14-44.33l-0.16-53.84
			c-0.02-8.61,6.99-15.67,15.59-15.7l101.34-0.3c8.6-0.03,15.67,6.99,15.7,15.59l0.14,46.44l0.15,51.72
			C174.26,146.91,167.24,153.97,158.63,153.99z"/>
		<path class="st2" d="M158.63,153.99L57.3,154.3c-8.61,0.02-15.67-6.99-15.7-15.59l-0.14-44.33c6.12-8.02,13.11-15.2,21.75-20.32
			c5.04-2.98,10.92-5.23,16.65-4.1c15.87,3.09,20.57,28.66,36.73,29.31c14.23,0.57,21.63-19.08,35.65-21.59
			c8.09-1.43,15.49,3.22,21.85,8.9l0.15,51.72C174.26,146.91,167.24,153.97,158.63,153.99z"/>
		<circle class="st2" cx="136.7" cy="54.4" r="12.14"/>
	</g>
	<g>
		<path class="st6" d="M188.73,165.13H27.17c-2.96,0-5.37-2.42-5.37-5.37V17.61c0-2.96,2.42-5.37,5.37-5.37h161.56
			c2.96,0,5.37,2.42,5.37,5.37v142.15C194.1,162.71,191.68,165.13,188.73,165.13z"/>
		<circle class="st2" cx="44.81" cy="32.46" r="13.7"/>
		<g>
			<path class="st5" d="M44.81,42.06L44.81,42.06c-0.96,0-1.74-0.78-1.74-1.74v-15.7c0-0.96,0.78-1.74,1.74-1.74l0,0
				c0.96,0,1.74,0.78,1.74,1.74v15.7C46.56,41.27,45.77,42.06,44.81,42.06z"/>
			<path class="st5" d="M35.22,32.46L35.22,32.46c0-0.96,0.78-1.74,1.74-1.74h15.7c0.96,0,1.74,0.78,1.74,1.74l0,0
				c0,0.96-0.78,1.74-1.74,1.74h-15.7C36,34.21,35.22,33.42,35.22,32.46z"/>
		</g>
	</g>
</g>
<g id="DESIGNED_BY_FREEPIK">
</g>
</svg>
